<svg width="46" height="58" viewBox="0 0 46 58" fill="none" xmlns="http://www.w3.org/2000/svg">
<path d="M41.1041 22.375C43.8125 25.2458 45.1666 28.8588 45.1666 33.2083C45.1666 42.5954 35.1458 44.7892 30.2708 57.5833C28.4643 56.0261 27.5625 53.77 27.5625 50.8125C27.5625 41.3821 41.1041 36.4854 41.1041 22.375ZM30.2708 11.5417C33.5208 14.8946 35.1458 18.5075 35.1458 22.375C35.1458 35.784 18.7739 37.7908 22.1458 57.5833C17.631 54.4417 15.375 49.9269 15.375 44.0417C15.375 35.0365 30.2708 27.7917 30.2708 11.5417ZM18.0833 0.708344C21.6935 5.22314 23.5 9.28564 23.5 12.8958C23.5 29.8229 0.479126 35.1638 12.6666 57.5833C5.58163 56.0125 0.479126 49.4583 0.479126 41.3333C0.479126 23.7292 18.0833 21.0208 18.0833 0.708344Z" fill="black"/>
</svg>
