<svg width="199" height="93" viewBox="0 0 199 93" fill="none" xmlns="http://www.w3.org/2000/svg">
<path d="M10.16 61.4C8.37333 61.4 6.66667 61.1067 5.04 60.52C3.41333 59.9333 2.01333 59.0667 0.84 57.92L2.76 54.44C4.01333 55.4533 5.24 56.2 6.44 56.68C7.64 57.16 8.81333 57.4 9.96 57.4C11 57.4 11.8267 57.2133 12.44 56.84C13.08 56.4667 13.4 55.9067 13.4 55.16C13.4 54.3867 13.0133 53.8667 12.24 53.6C11.4667 53.3067 10.3867 52.9467 9 52.52C7.45333 52.04 6.16 51.5467 5.12 51.04C4.08 50.5333 3.29333 49.92 2.76 49.2C2.25333 48.48 2 47.5467 2 46.4C2 44.3467 2.77333 42.7067 4.32 41.48C5.86667 40.2533 7.92 39.64 10.48 39.64C11.9733 39.64 13.3867 39.88 14.72 40.36C16.0533 40.8133 17.2667 41.56 18.36 42.6L16.2 46C14.1467 44.4 12.16 43.6 10.24 43.6C9.38667 43.6 8.62667 43.76 7.96 44.08C7.32 44.4 7 44.96 7 45.76C7 46.5067 7.30667 47.04 7.92 47.36C8.56 47.68 9.52 48.0267 10.8 48.4C12.4533 48.9067 13.8533 49.4 15 49.88C16.1733 50.36 17.0533 50.9733 17.64 51.72C18.2533 52.4667 18.56 53.48 18.56 54.76C18.56 56.84 17.8 58.4667 16.28 59.64C14.76 60.8133 12.72 61.4 10.16 61.4ZM31.8856 61.4C29.5923 61.4 27.619 60.9067 25.9656 59.92C24.339 58.9067 23.0856 57.5733 22.2056 55.92C21.3256 54.2667 20.8856 52.48 20.8856 50.56C20.8856 48.6133 21.3256 46.8133 22.2056 45.16C23.1123 43.5067 24.379 42.1867 26.0056 41.2C27.659 40.1867 29.619 39.68 31.8856 39.68C34.1523 39.68 36.099 40.1867 37.7256 41.2C39.379 42.1867 40.6456 43.5067 41.5256 45.16C42.4056 46.8133 42.8456 48.6133 42.8456 50.56C42.8456 52.48 42.4056 54.2667 41.5256 55.92C40.6456 57.5733 39.379 58.9067 37.7256 59.92C36.099 60.9067 34.1523 61.4 31.8856 61.4ZM26.4056 50.56C26.4056 51.7867 26.6456 52.88 27.1256 53.84C27.6056 54.7733 28.259 55.5067 29.0856 56.04C29.9123 56.5733 30.8456 56.84 31.8856 56.84C32.899 56.84 33.819 56.5733 34.6456 56.04C35.4723 55.48 36.1256 54.7333 36.6056 53.8C37.1123 52.84 37.3656 51.7467 37.3656 50.52C37.3656 49.32 37.1123 48.2533 36.6056 47.32C36.1256 46.36 35.4723 45.6133 34.6456 45.08C33.819 44.52 32.899 44.24 31.8856 44.24C30.8456 44.24 29.9123 44.52 29.0856 45.08C28.259 45.6133 27.6056 46.36 27.1256 47.32C26.6456 48.2533 26.4056 49.3333 26.4056 50.56ZM58.9434 44.68C57.3168 44.68 55.8634 45 54.5834 45.64C53.3034 46.2533 52.3834 47.1467 51.8234 48.32V61H46.4634V40.04H51.3834V44.52C52.1034 43.08 53.0368 41.9467 54.1834 41.12C55.3568 40.2933 56.5834 39.84 57.8634 39.76C58.4234 39.76 58.7834 39.7733 58.9434 39.8V44.68ZM61.07 52.44V47.6H73.19V52.44H61.07ZM76.4688 54.8C76.4688 53.44 76.8421 52.2533 77.5888 51.24C78.3621 50.2 79.4288 49.4 80.7888 48.84C82.1488 48.28 83.7088 48 85.4688 48C86.3488 48 87.2421 48.08 88.1488 48.24C89.0554 48.3733 89.8421 48.5733 90.5088 48.84V47.72C90.5088 46.3867 90.1088 45.36 89.3088 44.64C88.5354 43.92 87.3754 43.56 85.8288 43.56C84.6821 43.56 83.5888 43.76 82.5488 44.16C81.5088 44.56 80.4154 45.1467 79.2688 45.92L77.5488 42.4C78.9354 41.4933 80.3488 40.8133 81.7888 40.36C83.2554 39.9067 84.7888 39.68 86.3888 39.68C89.3754 39.68 91.6954 40.4267 93.3488 41.92C95.0288 43.4133 95.8688 45.5467 95.8688 48.32V55C95.8688 55.5867 95.9621 56 96.1488 56.24C96.3354 56.4533 96.6688 56.5867 97.1488 56.64V61C96.6688 61.1067 96.2288 61.1733 95.8288 61.2C95.4554 61.2533 95.1354 61.28 94.8688 61.28C93.8021 61.28 92.9888 61.04 92.4288 60.56C91.8688 60.08 91.5354 59.4933 91.4288 58.8L91.3088 57.72C90.3754 58.92 89.2288 59.84 87.8688 60.48C86.5354 61.0933 85.1621 61.4 83.7488 61.4C82.3354 61.4 81.0821 61.12 79.9888 60.56C78.8954 59.9733 78.0288 59.1867 77.3888 58.2C76.7754 57.1867 76.4688 56.0533 76.4688 54.8ZM89.5088 55.88C90.1754 55.24 90.5088 54.6267 90.5088 54.04V51.92C89.1221 51.36 87.7221 51.08 86.3088 51.08C84.8954 51.08 83.7488 51.3867 82.8688 52C81.9888 52.5867 81.5488 53.3733 81.5488 54.36C81.5488 55.16 81.8688 55.88 82.5088 56.52C83.1488 57.16 84.0688 57.48 85.2688 57.48C86.0688 57.48 86.8421 57.3333 87.5888 57.04C88.3621 56.7467 89.0021 56.36 89.5088 55.88ZM100.838 31.8H106.198V54.28C106.198 55.2667 106.358 55.92 106.678 56.24C106.998 56.56 107.438 56.72 107.998 56.72C108.424 56.72 108.864 56.6667 109.318 56.56C109.771 56.4533 110.171 56.32 110.518 56.16L111.238 60.24C110.518 60.5867 109.678 60.8533 108.717 61.04C107.758 61.2267 106.891 61.32 106.118 61.32C104.438 61.32 103.131 60.88 102.198 60C101.291 59.0933 100.838 57.8133 100.838 56.16V31.8ZM113.453 61V55.24H117.853V61H113.453ZM122.757 37.12V31.8H128.117V37.12H122.757ZM120.837 68.84C119.851 68.84 118.904 68.68 117.997 68.36C117.064 68.0667 116.237 67.6 115.517 66.96L117.837 63.32C118.157 63.6133 118.531 63.8267 118.957 63.96C119.357 64.12 119.771 64.2 120.197 64.2C120.891 64.2 121.491 63.9467 121.997 63.44C122.504 62.96 122.757 62.3333 122.757 61.56V40.04H128.117V61.16C128.117 62.68 127.797 64.0133 127.157 65.16C126.517 66.3067 125.637 67.2 124.517 67.84C123.424 68.5067 122.197 68.84 120.837 68.84ZM140.707 61.4C138.92 61.4 137.214 61.1067 135.587 60.52C133.96 59.9333 132.56 59.0667 131.387 57.92L133.307 54.44C134.56 55.4533 135.787 56.2 136.987 56.68C138.187 57.16 139.36 57.4 140.507 57.4C141.547 57.4 142.374 57.2133 142.987 56.84C143.627 56.4667 143.947 55.9067 143.947 55.16C143.947 54.3867 143.56 53.8667 142.787 53.6C142.014 53.3067 140.934 52.9467 139.547 52.52C138 52.04 136.707 51.5467 135.667 51.04C134.627 50.5333 133.84 49.92 133.307 49.2C132.8 48.48 132.547 47.5467 132.547 46.4C132.547 44.3467 133.32 42.7067 134.867 41.48C136.414 40.2533 138.467 39.64 141.027 39.64C142.52 39.64 143.934 39.88 145.267 40.36C146.6 40.8133 147.814 41.56 148.907 42.6L146.747 46C144.694 44.4 142.707 43.6 140.787 43.6C139.934 43.6 139.174 43.76 138.507 44.08C137.867 44.4 137.547 44.96 137.547 45.76C137.547 46.5067 137.854 47.04 138.467 47.36C139.107 47.68 140.067 48.0267 141.347 48.4C143 48.9067 144.4 49.4 145.547 49.88C146.72 50.36 147.6 50.9733 148.187 51.72C148.8 52.4667 149.107 53.48 149.107 54.76C149.107 56.84 148.347 58.4667 146.827 59.64C145.307 60.8133 143.267 61.4 140.707 61.4Z" fill="black"/>
<path d="M159.625 29.625H163.375V33.375H159.625V29.625Z" fill="#43B9AA"/>
<path d="M159.625 37.125H170.875V40.875H159.625V37.125Z" fill="#43B9AA"/>
<path d="M159.625 44.625H178.375V48.375H159.625V44.625Z" fill="#43B9AA"/>
<path d="M159.625 52.125H185.875V55.875H159.625V52.125Z" fill="#43B9AA"/>
<path d="M159.625 59.625H193.375V63.375H159.625V59.625Z" fill="#43B9AA"/>
</svg>
