<svg width="150" height="38" viewBox="0 0 150 38" fill="none" xmlns="http://www.w3.org/2000/svg">
<path d="M10.16 30.4C8.37333 30.4 6.66667 30.1067 5.04 29.52C3.41333 28.9333 2.01333 28.0667 0.84 26.92L2.76 23.44C4.01333 24.4533 5.24 25.2 6.44 25.68C7.64 26.16 8.81333 26.4 9.96 26.4C11 26.4 11.8267 26.2133 12.44 25.84C13.08 25.4667 13.4 24.9067 13.4 24.16C13.4 23.3867 13.0133 22.8667 12.24 22.6C11.4667 22.3067 10.3867 21.9467 9 21.52C7.45333 21.04 6.16 20.5467 5.12 20.04C4.08 19.5333 3.29333 18.92 2.76 18.2C2.25333 17.48 2 16.5467 2 15.4C2 13.3467 2.77333 11.7067 4.32 10.48C5.86667 9.25333 7.92 8.64 10.48 8.64C11.9733 8.64 13.3867 8.88 14.72 9.36C16.0533 9.81333 17.2667 10.56 18.36 11.6L16.2 15C14.1467 13.4 12.16 12.6 10.24 12.6C9.38667 12.6 8.62667 12.76 7.96 13.08C7.32 13.4 7 13.96 7 14.76C7 15.5067 7.30667 16.04 7.92 16.36C8.56 16.68 9.52 17.0267 10.8 17.4C12.4533 17.9067 13.8533 18.4 15 18.88C16.1733 19.36 17.0533 19.9733 17.64 20.72C18.2533 21.4667 18.56 22.48 18.56 23.76C18.56 25.84 17.8 27.4667 16.28 28.64C14.76 29.8133 12.72 30.4 10.16 30.4ZM31.8856 30.4C29.5923 30.4 27.619 29.9067 25.9656 28.92C24.339 27.9067 23.0856 26.5733 22.2056 24.92C21.3256 23.2667 20.8856 21.48 20.8856 19.56C20.8856 17.6133 21.3256 15.8133 22.2056 14.16C23.1123 12.5067 24.379 11.1867 26.0056 10.2C27.659 9.18666 29.619 8.68 31.8856 8.68C34.1523 8.68 36.099 9.18666 37.7256 10.2C39.379 11.1867 40.6456 12.5067 41.5256 14.16C42.4056 15.8133 42.8456 17.6133 42.8456 19.56C42.8456 21.48 42.4056 23.2667 41.5256 24.92C40.6456 26.5733 39.379 27.9067 37.7256 28.92C36.099 29.9067 34.1523 30.4 31.8856 30.4ZM26.4056 19.56C26.4056 20.7867 26.6456 21.88 27.1256 22.84C27.6056 23.7733 28.259 24.5067 29.0856 25.04C29.9123 25.5733 30.8456 25.84 31.8856 25.84C32.899 25.84 33.819 25.5733 34.6456 25.04C35.4723 24.48 36.1256 23.7333 36.6056 22.8C37.1123 21.84 37.3656 20.7467 37.3656 19.52C37.3656 18.32 37.1123 17.2533 36.6056 16.32C36.1256 15.36 35.4723 14.6133 34.6456 14.08C33.819 13.52 32.899 13.24 31.8856 13.24C30.8456 13.24 29.9123 13.52 29.0856 14.08C28.259 14.6133 27.6056 15.36 27.1256 16.32C26.6456 17.2533 26.4056 18.3333 26.4056 19.56ZM58.9434 13.68C57.3168 13.68 55.8634 14 54.5834 14.64C53.3034 15.2533 52.3834 16.1467 51.8234 17.32V30H46.4634V9.04H51.3834V13.52C52.1034 12.08 53.0368 10.9467 54.1834 10.12C55.3568 9.29333 56.5834 8.84 57.8634 8.76C58.4234 8.76 58.7834 8.77333 58.9434 8.8V13.68ZM61.07 21.44V16.6H73.19V21.44H61.07ZM76.4688 23.8C76.4688 22.44 76.8421 21.2533 77.5888 20.24C78.3621 19.2 79.4288 18.4 80.7888 17.84C82.1488 17.28 83.7088 17 85.4688 17C86.3488 17 87.2421 17.08 88.1488 17.24C89.0554 17.3733 89.8421 17.5733 90.5088 17.84V16.72C90.5088 15.3867 90.1088 14.36 89.3088 13.64C88.5354 12.92 87.3754 12.56 85.8288 12.56C84.6821 12.56 83.5888 12.76 82.5488 13.16C81.5088 13.56 80.4154 14.1467 79.2688 14.92L77.5488 11.4C78.9354 10.4933 80.3488 9.81333 81.7888 9.36C83.2554 8.90666 84.7888 8.68 86.3888 8.68C89.3754 8.68 91.6954 9.42666 93.3488 10.92C95.0288 12.4133 95.8688 14.5467 95.8688 17.32V24C95.8688 24.5867 95.9621 25 96.1488 25.24C96.3354 25.4533 96.6688 25.5867 97.1488 25.64V30C96.6688 30.1067 96.2288 30.1733 95.8288 30.2C95.4554 30.2533 95.1354 30.28 94.8688 30.28C93.8021 30.28 92.9888 30.04 92.4288 29.56C91.8688 29.08 91.5354 28.4933 91.4288 27.8L91.3088 26.72C90.3754 27.92 89.2288 28.84 87.8688 29.48C86.5354 30.0933 85.1621 30.4 83.7488 30.4C82.3354 30.4 81.0821 30.12 79.9888 29.56C78.8954 28.9733 78.0288 28.1867 77.3888 27.2C76.7754 26.1867 76.4688 25.0533 76.4688 23.8ZM89.5088 24.88C90.1754 24.24 90.5088 23.6267 90.5088 23.04V20.92C89.1221 20.36 87.7221 20.08 86.3088 20.08C84.8954 20.08 83.7488 20.3867 82.8688 21C81.9888 21.5867 81.5488 22.3733 81.5488 23.36C81.5488 24.16 81.8688 24.88 82.5088 25.52C83.1488 26.16 84.0688 26.48 85.2688 26.48C86.0688 26.48 86.8421 26.3333 87.5888 26.04C88.3621 25.7467 89.0021 25.36 89.5088 24.88ZM100.838 0.799999H106.198V23.28C106.198 24.2667 106.358 24.92 106.678 25.24C106.998 25.56 107.438 25.72 107.998 25.72C108.424 25.72 108.864 25.6667 109.318 25.56C109.771 25.4533 110.171 25.32 110.518 25.16L111.238 29.24C110.518 29.5867 109.678 29.8533 108.717 30.04C107.758 30.2267 106.891 30.32 106.118 30.32C104.438 30.32 103.131 29.88 102.198 29C101.291 28.0933 100.838 26.8133 100.838 25.16V0.799999ZM113.453 30V24.24H117.853V30H113.453ZM122.757 6.12V0.799999H128.117V6.12H122.757ZM120.837 37.84C119.851 37.84 118.904 37.68 117.997 37.36C117.064 37.0667 116.237 36.6 115.517 35.96L117.837 32.32C118.157 32.6133 118.531 32.8267 118.957 32.96C119.357 33.12 119.771 33.2 120.197 33.2C120.891 33.2 121.491 32.9467 121.997 32.44C122.504 31.96 122.757 31.3333 122.757 30.56V9.04H128.117V30.16C128.117 31.68 127.797 33.0133 127.157 34.16C126.517 35.3067 125.637 36.2 124.517 36.84C123.424 37.5067 122.197 37.84 120.837 37.84ZM140.707 30.4C138.92 30.4 137.214 30.1067 135.587 29.52C133.96 28.9333 132.56 28.0667 131.387 26.92L133.307 23.44C134.56 24.4533 135.787 25.2 136.987 25.68C138.187 26.16 139.36 26.4 140.507 26.4C141.547 26.4 142.374 26.2133 142.987 25.84C143.627 25.4667 143.947 24.9067 143.947 24.16C143.947 23.3867 143.56 22.8667 142.787 22.6C142.014 22.3067 140.934 21.9467 139.547 21.52C138 21.04 136.707 20.5467 135.667 20.04C134.627 19.5333 133.84 18.92 133.307 18.2C132.8 17.48 132.547 16.5467 132.547 15.4C132.547 13.3467 133.32 11.7067 134.867 10.48C136.414 9.25333 138.467 8.64 141.027 8.64C142.52 8.64 143.934 8.88 145.267 9.36C146.6 9.81333 147.814 10.56 148.907 11.6L146.747 15C144.694 13.4 142.707 12.6 140.787 12.6C139.934 12.6 139.174 12.76 138.507 13.08C137.867 13.4 137.547 13.96 137.547 14.76C137.547 15.5067 137.854 16.04 138.467 16.36C139.107 16.68 140.067 17.0267 141.347 17.4C143 17.9067 144.4 18.4 145.547 18.88C146.72 19.36 147.6 19.9733 148.187 20.72C148.8 21.4667 149.107 22.48 149.107 23.76C149.107 25.84 148.347 27.4667 146.827 28.64C145.307 29.8133 143.267 30.4 140.707 30.4Z" fill="black"/>
</svg>
